<?xml version="1.0"?>
<svg xmlns="http://www.w3.org/2000/svg" height="512px" viewBox="0 0 512 512" width="512px" class=""><g><path d="m170.667969 42.667969c0 4.710937-3.820313 8.53125-8.535157 8.53125-4.710937 0-8.53125-3.820313-8.53125-8.53125 0-4.714844 3.820313-8.535157 8.53125-8.535157 4.714844 0 8.535157 3.820313 8.535157 8.535157zm0 0" data-original="#000000" class="active-path" data-old_color="#FCE3E3" fill="#FFFFFF"/><path d="m136.535156 42.667969c0 4.710937-3.824218 8.53125-8.535156 8.53125s-8.535156-3.820313-8.535156-8.53125c0-4.714844 3.824218-8.535157 8.535156-8.535157s8.535156 3.820313 8.535156 8.535157zm0 0" data-original="#000000" class="active-path" data-old_color="#FCE3E3" fill="#FFFFFF"/><path d="m204.800781 42.667969c0 4.710937-3.820312 8.53125-8.535156 8.53125-4.710937 0-8.53125-3.820313-8.53125-8.53125 0-4.714844 3.820313-8.535157 8.53125-8.535157 4.714844 0 8.535156 3.820313 8.535156 8.535157zm0 0" data-original="#000000" class="active-path" data-old_color="#FCE3E3" fill="#FFFFFF"/><path d="m494.933594 0h-153.601563c-9.421875.0078125-17.054687 7.644531-17.066406 17.066406v155.984375l-17.066406 5.6875v-136.070312c-.027344-23.554688-19.113281-42.6406252-42.664063-42.667969h-204.800781c-23.554687.0273438-42.640625 19.113281-42.667969 42.667969v42.664062h-8.53125c-4.714844 0-8.535156 3.820313-8.535156 8.535157v34.132812c0 4.710938 3.820312 8.535156 8.535156 8.535156h8.53125v17.066406h-8.53125c-4.714844 0-8.535156 3.820313-8.535156 8.53125v34.132813c0 4.714844 3.820312 8.535156 8.535156 8.535156h8.53125v264.53125c.027344 23.554688 19.113282 42.640625 42.667969 42.667969h204.800781c23.550782-.027344 42.636719-19.113281 42.664063-42.667969v-50.738281l17.382812 5.796875c.988281 15.023437 5.605469 29.585937 13.457031 42.4375.085938.15625.085938.332031.179688.484375.128906.214844.3125.371094.460938.570312 24.25 38.675782 72.824218 54.273438 115.058593 36.945313s65.859375-62.546875 55.960938-107.109375c-9.898438-44.5625-50.445313-75.527344-96.042969-73.34375-45.597656 2.179688-83 36.875-88.597656 82.183594l-17.859375-5.953125v-50.738281h1.621093c13 .089843 23.96875-9.652344 25.414063-22.570313l5.859375-37.164063h154.839844c9.421875-.007812 17.058594-7.644531 17.066406-17.066406v-51.199218c-.007812-9.421876-7.644531-17.058594-17.066406-17.066407h-153.601563c-9.421875.007813-17.054687 7.644531-17.066406 17.066407v59.066406l-6.953125 44.1875c-.425781 4.367187-4.105469 7.691406-8.492188 7.679687h-1.621093v-136.070312l26.988281-8.996094h160.746094c9.421875-.011719 17.058594-7.644531 17.066406-17.066406v-153.601563c-.007812-9.421875-7.644531-17.0585935-17.066406-17.066406zm-137.246094 465.347656 51.914062-31.945312v61.027344c-20.511718-2.316407-39.226562-12.796876-51.914062-29.082032zm137.246094-47.214844c-.054688 39.085938-29.425782 71.914063-68.265625 76.296876v-152.59375c38.839843 4.386718 68.210937 37.210937 68.265625 76.296874zm-85.332032-76.296874v71.53125l-60.859374 37.449218c-10.636719-22.394531-9.773438-48.546875 2.3125-70.191406 12.085937-21.644531 33.902343-36.097656 58.546874-38.789062zm-68.269531-119.96875h153.601563l.011718 51.199218h-153.613281zm-76.796875-204.800782c1.578125.011719 3.148438.171875 4.699219.476563.476563.085937.933594.222656 1.398437.339843 1.042969.253907 2.070313.574219 3.070313.957032.484375.1875.960937.382812 1.429687.597656.996094.460938 1.957032.984375 2.886719 1.566406.351563.222656.722657.414063 1.066407.652344 1.226562.847656 2.375 1.796875 3.4375 2.839844.183593.179687.332031.394531.511718.578125.855469.898437 1.644532 1.851562 2.359375 2.863281.285157.398438.535157.816406.792969 1.234375.554688.882813 1.054688 1.800781 1.496094 2.746094.214844.460937.429687.921875.617187 1.394531.105469.265625.160157.554688.257813.824219h-30.542969c-14.941406-.050781-28.609375 8.398437-35.25 21.785156-3.761719 7.585937-11.511719 12.375-19.980469 12.34375h-81.300781c-8.472656.027344-16.222656-4.761719-19.984375-12.347656-6.636719-13.386719-20.308594-21.835938-35.25-21.785157h-30.542969c.09375-.269531.152344-.558593.253907-.828124.1875-.472657.402343-.929688.617187-1.386719.441406-.945313.941406-1.867188 1.496094-2.75.253906-.417969.511719-.839844.792969-1.238281.714843-1.007813 1.503906-1.964844 2.359374-2.859376.175782-.183593.328126-.398437.511719-.578124 1.0625-1.042969 2.210938-1.996094 3.4375-2.839844.34375-.234375.714844-.425782 1.066407-.648438.929687-.585937 1.894531-1.109375 2.886718-1.570312.46875-.214844.945313-.40625 1.425782-.597656 1.003906-.386719 2.035156-.703126 3.078124-.957032.464844-.117187.925782-.257812 1.398438-.34375 1.550781-.300781 3.125-.457031 4.703125-.46875zm25.597656 315.734375h-44.238281c-3.59375-10.199219-13.214843-17.035156-24.027343-17.066406h-119.46875c-14.136719 0-25.597657 11.460937-25.597657 25.597656 0 14.140625 11.460938 25.601563 25.597657 25.601563h119.46875c10.8125-.035156 20.433593-6.867188 24.027343-17.066406h44.238281v45.050781l-3.210937-1.070313c-2.609375-.871094-5.34375-1.316406-8.09375-1.3125h-56.960937c-4.714844 0-8.535157 3.820313-8.535157 8.53125 0 4.714844 3.820313 8.535156 8.535157 8.535156h56.960937c.917969-.003906 1.832031.144532 2.699219.4375l8.605468 2.867188v56.425781c-.015624 14.132813-11.46875 25.585938-25.597656 25.601563h-204.800781c-14.132813-.015625-25.585937-11.46875-25.601563-25.601563v-418.132812h32.117188c8.472656-.027344 16.21875 4.761719 19.984375 12.351562 6.636719 13.386719 20.308594 21.832031 35.25 21.78125h81.300781c14.941406.050781 28.609375-8.394531 35.246094-21.78125 3.765625-7.589843 11.515625-12.378906 19.984375-12.351562h32.117187v133.230469l-8.59375 2.867187c-.875.289063-1.789062.4375-2.710937.4375h-23.261719c-3.722656-41.585937-34.476562-75.710937-75.453125-83.726563-40.976562-8.015624-82.316406 12.011719-101.433593 49.128907-19.117188 37.121093-11.410157 82.40625 18.914062 111.109375.199219.277344.417969.542968.652344.796875.992187.917969 2.058594 1.730469 3.082031 2.601562.632813.539063 1.253906 1.078125 1.898437 1.601563 1.644532 1.328125 3.335938 2.574218 5.054688 3.78125.75.53125 1.492188 1.066406 2.257812 1.570312 1.6875 1.109375 3.414063 2.140625 5.160157 3.140625.878906.5 1.742187 1.011719 2.632812 1.484375 1.699219.898438 3.429688 1.707032 5.175781 2.5 1.007813.457032 2.003907.9375 3.035157 1.355469 1.695312.695313 3.425781 1.300781 5.164062 1.894531 1.121094.386719 2.230469.800782 3.375 1.148438 1.734375.519531 3.5.933594 5.257813 1.355468 1.1875.28125 2.351562.609376 3.554687.847657 1.910157.375 3.851563.628906 5.789063.886719 1.082031.140624 2.140625.347656 3.230468.457031 3.050782.296875 6.125.464843 9.214844.464843 3.09375 0 6.167969-.171874 9.21875-.464843 1.109375-.109375 2.183594-.320313 3.28125-.464844 1.917969-.257813 3.839844-.503906 5.730469-.878906 1.230469-.242188 2.421875-.574219 3.632813-.867188 1.730468-.414062 3.464843-.816406 5.164062-1.328125 1.183594-.359375 2.328125-.785156 3.492188-1.1875 1.691406-.582031 3.378906-1.167968 5.035156-1.847656 1.074218-.441406 2.117187-.9375 3.171875-1.421875 1.695312-.765625 3.375-1.550781 5.023437-2.421875.945313-.5 1.863282-1.042969 2.789063-1.578125 1.691406-.964844 3.359375-1.960937 4.992187-3.03125.824219-.546875 1.625-1.125 2.433594-1.695313 1.652344-1.164062 3.285156-2.367187 4.871094-3.644531.707031-.570312 1.390625-1.164062 2.078125-1.753906.984375-.84375 2.011719-1.621094 2.96875-2.503906.226562-.242188.4375-.5.632812-.769531 16.558594-15.640626 26.84375-36.789063 28.921875-59.472657h23.261719c2.753906 0 5.488281-.445312 8.101563-1.3125l3.203124-1.070312zm-59.734374 8.53125c-.003907 4.710938-3.820313 8.527344-8.53125 8.535157h-119.46875c-4.710938 0-8.53125-3.820313-8.53125-8.535157 0-4.710937 3.820312-8.53125 8.53125-8.53125h119.46875c4.710937.003907 8.527343 3.820313 8.53125 8.53125zm-7.148438-98.75c-6.972656-14.027343-18.566406-25.214843-32.832031-31.683593 13.273437-11.753907 17.894531-30.492188 11.609375-47.066407-6.285156-16.578125-22.167969-27.542969-39.898438-27.542969-17.726562 0-33.609375 10.964844-39.894531 27.542969-6.285156 16.574219-1.664063 35.3125 11.609375 47.066407-14.265625 6.464843-25.863281 17.65625-32.835938 31.679687-24.0625-31.628906-20.023437-76.390625 9.316407-103.199219 29.335937-26.804687 74.28125-26.804687 103.617187.003906 29.335938 26.8125 33.371094 71.574219 9.304688 103.199219zm-24.304688 21.058594c-.417968.226563-.851562.425781-1.273437.644531-1.628906.851563-3.285156 1.664063-4.984375 2.402344-.71875.3125-1.449219.589844-2.175781.878906-1.445313.578125-2.902344 1.117188-4.386719 1.609375-.851562.28125-1.71875.542969-2.585938.792969-1.417968.414062-2.851562.78125-4.300781 1.109375-.902343.207031-1.804687.414063-2.714843.589844-1.550782.296875-3.128907.519531-4.714844.71875-.800782.101562-1.597656.234375-2.402344.3125-2.398438.226562-4.820312.367187-7.273438.367187-2.453124 0-4.878906-.140625-7.273437-.367187-.800781-.078125-1.589844-.207031-2.382813-.308594-1.597656-.199219-3.1875-.425781-4.75-.726563-.894531-.171874-1.78125-.375-2.667968-.578124-1.472656-.335938-2.933594-.707032-4.371094-1.125-.84375-.246094-1.679688-.5-2.511719-.769532-1.523437-.5-3.019531-1.054687-4.496093-1.648437-.691407-.277344-1.382813-.539063-2.066407-.832031-1.753906-.769532-3.472656-1.601563-5.160156-2.492188-.367187-.191406-.742187-.359375-1.101563-.554688-4.070312-2.238281-7.933593-4.839843-11.535156-7.773437 7.304688-20.40625 26.640625-34.023437 48.316406-34.023437 21.671876 0 41.007813 13.617187 48.3125 34.023437-3.589843 2.921875-7.441406 5.515625-11.5 7.75zm-62.410156-84.441406c0-14.136719 11.460938-25.597657 25.597656-25.597657 14.140626 0 25.601563 11.460938 25.601563 25.597657 0 14.140625-11.460937 25.601562-25.601563 25.601562-14.132812-.015625-25.582031-11.46875-25.597656-25.601562zm204.796875-8.53125v-153.601563h153.601563l.011718 153.601563zm0 0" data-original="#000000" class="active-path" data-old_color="#FCE3E3" fill="#FFFFFF"/><path d="m469.332031 34.132812h-102.398437c-4.714844 0-8.535156 3.820313-8.535156 8.535157 0 4.710937 3.820312 8.53125 8.535156 8.53125h102.398437c4.714844 0 8.535157-3.820313 8.535157-8.53125 0-4.714844-3.820313-8.535157-8.535157-8.535157zm0 0" data-original="#000000" class="active-path" data-old_color="#FCE3E3" fill="#FFFFFF"/><path d="m366.933594 85.332031h25.601562c4.710938 0 8.53125-3.820312 8.53125-8.53125 0-4.714843-3.820312-8.535156-8.53125-8.535156h-25.601562c-4.714844 0-8.535156 3.820313-8.535156 8.535156 0 4.710938 3.820312 8.53125 8.535156 8.53125zm0 0" data-original="#000000" class="active-path" data-old_color="#FCE3E3" fill="#FFFFFF"/><path d="m435.199219 102.398438h-68.265625c-4.714844 0-8.535156 3.820312-8.535156 8.535156 0 4.710937 3.820312 8.53125 8.535156 8.53125h68.265625c4.714843 0 8.535156-3.820313 8.535156-8.53125 0-4.714844-3.820313-8.535156-8.535156-8.535156zm0 0" data-original="#000000" class="active-path" data-old_color="#FCE3E3" fill="#FFFFFF"/><path d="m409.601562 136.535156h-42.667968c-4.714844 0-8.535156 3.820313-8.535156 8.53125 0 4.714844 3.820312 8.535156 8.535156 8.535156h42.667968c4.710938 0 8.53125-3.820312 8.53125-8.535156 0-4.710937-3.820312-8.53125-8.53125-8.53125zm0 0" data-original="#000000" class="active-path" data-old_color="#FCE3E3" fill="#FFFFFF"/><path d="m187.734375 460.800781h-128c-4.714844 0-8.535156 3.820313-8.535156 8.53125 0 4.714844 3.820312 8.535157 8.535156 8.535157h128c4.710937 0 8.53125-3.820313 8.53125-8.535157 0-4.710937-3.820313-8.53125-8.53125-8.53125zm0 0" data-original="#000000" class="active-path" data-old_color="#FCE3E3" fill="#FFFFFF"/><path d="m51.199219 401.066406c0 4.714844 3.820312 8.535156 8.535156 8.535156h85.332031c4.714844 0 8.535156-3.820312 8.535156-8.535156 0-4.710937-3.820312-8.53125-8.535156-8.53125h-85.332031c-4.714844 0-8.535156 3.820313-8.535156 8.53125zm0 0" data-original="#000000" class="active-path" data-old_color="#FCE3E3" fill="#FFFFFF"/><path d="m51.199219 435.199219c0 4.714843 3.820312 8.535156 8.535156 8.535156h204.800781c4.710938 0 8.53125-3.820313 8.53125-8.535156 0-4.710938-3.820312-8.53125-8.53125-8.53125h-204.800781c-4.714844 0-8.535156 3.820312-8.535156 8.53125zm0 0" data-original="#000000" class="active-path" data-old_color="#FCE3E3" fill="#FFFFFF"/><path d="m443.734375 238.933594h-76.800781c-4.714844 0-8.535156 3.820312-8.535156 8.53125 0 4.714844 3.820312 8.535156 8.535156 8.535156h76.800781c4.710937 0 8.53125-3.820312 8.53125-8.535156 0-4.710938-3.820313-8.53125-8.53125-8.53125zm0 0" data-original="#000000" class="active-path" data-old_color="#FCE3E3" fill="#FFFFFF"/></g> </svg>
