<?xml version="1.0"?>
<svg xmlns="http://www.w3.org/2000/svg" height="512px" viewBox="0 0 480 480" width="512px"><g><path d="m448 276c-.011719-11.039062-8.960938-19.988281-20-20h-20v-32h-16v32h-16v-32h-16v32h-16v-32h-16v32h-16v-32h-16v32h-20c-11.039062.011719-19.988281 8.960938-20 20v20h-32v16h32v16h-32v16h32v16h-32v16h32v16h-32v16h32v20c.011719 11.039062 8.960938 19.988281 20 20h20v32h16v-32h16v32h16v-32h16v32h16v-32h16v32h16v-32h20c11.039062-.011719 19.988281-8.960938 20-20v-20h32v-16h-32v-16h32v-16h-32v-16h32v-16h-32v-16h32v-16h-32zm-16 152c0 2.207031-1.792969 4-4 4h-152c-2.207031 0-4-1.792969-4-4v-152c0-2.207031 1.792969-4 4-4h152c2.207031 0 4 1.792969 4 4zm0 0" data-original="#000000" class="active-path" data-old_color="#FCFBFB" fill="#FFFFFF"/><path d="m16 464h16v16h-16zm0 0" data-original="#000000" class="active-path" data-old_color="#FCFBFB" fill="#FFFFFF"/><path d="m76 112c2.207031 0 4 1.792969 4 4v28c-8.832031.007812-15.992188 7.167969-16 16v16c.007812 8.832031 7.167969 15.992188 16 16h16c8.832031-.007812 15.992188-7.167969 16-16v-16c-.007812-8.832031-7.167969-15.992188-16-16v-28c-.011719-11.039062-8.960938-19.988281-20-20-2.207031 0-4-1.792969-4-4v-60h-16v60c.011719 11.039062 8.960938 19.988281 20 20zm20 48v16h-16v-16zm0 0" data-original="#000000" class="active-path" data-old_color="#FCFBFB" fill="#FFFFFF"/><path d="m56 0h16v16h-16zm0 0" data-original="#000000" class="active-path" data-old_color="#FCFBFB" fill="#FFFFFF"/><path d="m16 0h16v16h-16zm0 0" data-original="#000000" class="active-path" data-old_color="#FCFBFB" fill="#FFFFFF"/><path d="m16 296v152h16v-152c8.832031-.007812 15.992188-7.167969 16-16v-16c-.007812-8.832031-7.167969-15.992188-16-16h-16c-8.832031.007812-15.9921875 7.167969-16 16v16c.0078125 8.832031 7.167969 15.992188 16 16zm0-32h16v16h-16zm0 0" data-original="#000000" class="active-path" data-old_color="#FCFBFB" fill="#FFFFFF"/><path d="m16 232h16c8.832031-.007812 15.992188-7.167969 16-16v-16c-.007812-8.832031-7.167969-15.992188-16-16v-152h-16v152c-8.832031.007812-15.9921875 7.167969-16 16v16c.0078125 8.832031 7.167969 15.992188 16 16zm0-32h16v16h-16zm0 0" data-original="#000000" class="active-path" data-old_color="#FCFBFB" fill="#FFFFFF"/><path d="m64 444c.011719 11.039062 8.960938 19.988281 20 20h60c.007812 8.832031 7.167969 15.992188 16 16h16c8.832031-.007812 15.992188-7.167969 16-16v-16c-.007812-8.832031-7.167969-15.992188-16-16h-16c-8.832031.007812-15.992188 7.167969-16 16h-60c-2.207031 0-4-1.792969-4-4v-24c0-2.207031 1.792969-4 4-4h76v-16h-76c-11.039062.011719-19.988281 8.960938-20 20zm96 4h16v16h-16zm0 0" data-original="#000000" class="active-path" data-old_color="#FCFBFB" fill="#FFFFFF"/><path d="m176 400h16v16h-16zm0 0" data-original="#000000" class="active-path" data-old_color="#FCFBFB" fill="#FFFFFF"/><path d="m64 368c.007812 8.832031 7.167969 15.992188 16 16h16c8.832031-.007812 15.992188-7.167969 16-16h60c11.039062-.011719 19.988281-8.960938 20-20v-24c-.011719-11.039062-8.960938-19.988281-20-20h-76v16h76c2.207031 0 4 1.792969 4 4v24c0 2.207031-1.792969 4-4 4h-60c-.007812-8.832031-7.167969-15.992188-16-16h-16c-8.832031.007812-15.992188 7.167969-16 16zm16-16h16v16h-16zm0 0" data-original="#000000" class="active-path" data-old_color="#FCFBFB" fill="#FFFFFF"/><path d="m64 304h16v16h-16zm0 0" data-original="#000000" class="active-path" data-old_color="#FCFBFB" fill="#FFFFFF"/><path d="m72 228v24c.011719 11.039062 8.960938 19.988281 20 20h52c.007812 8.832031 7.167969 15.992188 16 16h16c8.832031-.007812 15.992188-7.167969 16-16v-16c-.007812-8.832031-7.167969-15.992188-16-16h-16c-8.832031.007812-15.992188 7.167969-16 16h-52c-2.207031 0-4-1.792969-4-4v-24c0-2.207031 1.792969-4 4-4h68v-16h-68c-11.039062.011719-19.988281 8.960938-20 20zm88 28h16v16h-16l-.011719-16zm0 0" data-original="#000000" class="active-path" data-old_color="#FCFBFB" fill="#FFFFFF"/><path d="m176 208h16v16h-16zm0 0" data-original="#000000" class="active-path" data-old_color="#FCFBFB" fill="#FFFFFF"/><path d="m128 176h16v16h-16zm0 0" data-original="#000000" class="active-path" data-old_color="#FCFBFB" fill="#FFFFFF"/><path d="m108 80h16c2.207031 0 4 1.792969 4 4v76h16v-76c-.011719-11.039062-8.960938-19.988281-20-20h-16c-2.207031 0-4-1.792969-4-4v-24c0-2.207031 1.792969-4 4-4h28c.007812 8.832031 7.167969 15.992188 16 16h16c8.832031-.007812 15.992188-7.167969 16-16v-16c-.007812-8.832031-7.167969-15.9921875-16-16h-16c-8.832031.0078125-15.992188 7.167969-16 16h-28c-11.039062.011719-19.988281 8.960938-20 20v24c.011719 11.039062 8.960938 19.988281 20 20zm44-64h16l.011719 16h-16.011719zm0 0" data-original="#000000" class="active-path" data-old_color="#FCFBFB" fill="#FFFFFF"/><path d="m240 124c0-2.207031 1.792969-4 4-4 11.039062-.011719 19.988281-8.960938 20-20v-52c8.832031-.007812 15.992188-7.167969 16-16v-16c-.007812-8.832031-7.167969-15.9921875-16-16h-16c-8.832031.0078125-15.992188 7.167969-16 16v16c.007812 8.832031 7.167969 15.992188 16 16v52c0 2.207031-1.792969 4-4 4-11.039062.011719-19.988281 8.960938-20 20v36h16zm8-108h16v16h-16zm0 0" data-original="#000000" class="active-path" data-old_color="#FCFBFB" fill="#FFFFFF"/><path d="m224 176h16v16h-16zm0 0" data-original="#000000" class="active-path" data-old_color="#FCFBFB" fill="#FFFFFF"/><path d="m176 84v60c-8.832031.007812-15.992188 7.167969-16 16v16c.007812 8.832031 7.167969 15.992188 16 16h16c8.832031-.007812 15.992188-7.167969 16-16v-16c-.007812-8.832031-7.167969-15.992188-16-16v-60c0-2.207031 1.792969-4 4-4 11.039062-.011719 19.988281-8.960938 20-20v-28h-16v28c0 2.207031-1.792969 4-4 4-11.039062.011719-19.988281 8.960938-20 20zm16 92h-16v-16h16zm0 0" data-original="#000000" class="active-path" data-old_color="#FCFBFB" fill="#FFFFFF"/><path d="m200 0h16v16h-16zm0 0" data-original="#000000" class="active-path" data-old_color="#FCFBFB" fill="#FFFFFF"/><path d="m464 144v-56h-16v56c-8.832031.007812-15.992188 7.167969-16 16v16c.007812 8.832031 7.167969 15.992188 16 16h16c8.832031-.007812 15.992188-7.167969 16-16v-16c-.007812-8.832031-7.167969-15.992188-16-16zm0 32h-16l-.011719-16h16.011719zm0 0" data-original="#000000" class="active-path" data-old_color="#FCFBFB" fill="#FFFFFF"/><path d="m448 56h16v16h-16zm0 0" data-original="#000000" class="active-path" data-old_color="#FCFBFB" fill="#FFFFFF"/><path d="m400 156c0 2.207031-1.792969 4-4 4h-92c-.007812-8.832031-7.167969-15.992188-16-16h-16c-8.832031.007812-15.992188 7.167969-16 16v16c.007812 8.832031 7.167969 15.992188 16 16h16c8.832031-.007812 15.992188-7.167969 16-16h92c11.039062-.011719 19.988281-8.960938 20-20v-68h-16zm-128 20v-16h16l.011719 16zm0 0" data-original="#000000" class="active-path" data-old_color="#FCFBFB" fill="#FFFFFF"/><path d="m400 56h16v16h-16zm0 0" data-original="#000000" class="active-path" data-old_color="#FCFBFB" fill="#FFFFFF"/><path d="m280 108c.011719 11.039062 8.960938 19.988281 20 20h36c.007812 8.832031 7.167969 15.992188 16 16h16c8.832031-.007812 15.992188-7.167969 16-16v-16c-.007812-8.832031-7.167969-15.992188-16-16h-16c-8.832031.007812-15.992188 7.167969-16 16h-36c-2.207031 0-4-1.792969-4-4v-24c0-2.207031 1.792969-4 4-4 11.039062-.011719 19.988281-8.960938 20-20v-28h-16v28c0 2.207031-1.792969 4-4 4-11.039062.011719-19.988281 8.960938-20 20zm72 4h16v16h-16l-.011719-16zm0 0" data-original="#000000" class="active-path" data-old_color="#FCFBFB" fill="#FFFFFF"/><path d="m304 0h16v16h-16zm0 0" data-original="#000000" class="active-path" data-old_color="#FCFBFB" fill="#FFFFFF"/><path d="m464 0h-16c-8.832031.0078125-15.992188 7.167969-16 16h-60c-11.039062.011719-19.988281 8.960938-20 20v12h16v-12c0-2.207031 1.792969-4 4-4h60c.007812 8.832031 7.167969 15.992188 16 16h16c8.832031-.007812 15.992188-7.167969 16-16v-16c-.007812-8.832031-7.167969-15.9921875-16-16zm-16 32v-16h16l.011719 16zm0 0" data-original="#000000" class="active-path" data-old_color="#FCFBFB" fill="#FFFFFF"/><path d="m352 64h16v16h-16zm0 0" data-original="#000000" class="active-path" data-old_color="#FCFBFB" fill="#FFFFFF"/></g> </svg>
