<?xml version="1.0" encoding="iso-8859-1"?>
<!-- Generator: Adobe Illustrator 19.0.0, SVG Export Plug-In . SVG Version: 6.00 Build 0)  -->
<svg xmlns="http://www.w3.org/2000/svg" xmlns:xlink="http://www.w3.org/1999/xlink" version="1.1" id="Layer_1" x="0px" y="0px" viewBox="0 0 338.352 338.352" style="enable-background:new 0 0 338.352 338.352;" xml:space="preserve" width="512px" height="512px">
<g>
	<g>
		<path d="M169.176,0C75.601,0,0,75.514,0,169.176s75.514,169.176,169.176,169.176s169.176-75.514,169.176-169.176    S262.752,0,169.176,0z M169.175,315.732C87.986,315.731,22.62,250.366,22.62,169.176c0-36.553,13.245-69.924,35.263-95.553    l206.847,206.847C239.099,302.487,205.728,315.732,169.175,315.732z M280.469,264.729L73.622,57.883    c25.63-22.017,59.001-35.263,95.554-35.263c81.191,0,146.556,65.365,146.556,146.556    C315.732,205.729,302.487,239.099,280.469,264.729z" fill="#FFFFFF"/>
	</g>
</g>
<g>
</g>
<g>
</g>
<g>
</g>
<g>
</g>
<g>
</g>
<g>
</g>
<g>
</g>
<g>
</g>
<g>
</g>
<g>
</g>
<g>
</g>
<g>
</g>
<g>
</g>
<g>
</g>
<g>
</g>
</svg>
